<svg preserveAspectRatio="xMidYMid meet" width="100%" height="100%" overflow="visible" style="display: block;" viewBox="0 0 49.7375 50.15" fill="none" xmlns="http://www.w3.org/2000/svg">
<g id="Border">
<rect x="1" y="1" width="47.7375" height="48.15" stroke="var(--stroke-0, black)" stroke-width="2"/>
<path id="Icon" d="M32.0875 26.2L29.9875 24.025L34.5625 20.5L25.9375 13.825L22.4125 16.525L20.3125 14.35L25.9375 10L39.4375 20.5L32.0875 26.2V26.2M36.4 30.475L34.225 28.3L36.9625 26.2L39.4375 28.075L36.4 30.475V30.475M37.6375 40.15L31.6375 34.15L25.9375 38.575L12.4375 28.075L14.9125 26.2L25.9375 34.75L29.4625 32.0125L27.325 29.9125L25.9375 31L12.4375 20.5L15.55 18.0625L10 12.5875L12.1375 10.45L39.7375 38.05L37.6375 40.15V40.15M26.2 20.275V20.275V20.275V20.275V20.275V20.275" fill="var(--fill-0, black)"/>
</g>
</svg>
