<svg preserveAspectRatio="xMidYMid meet" width="100%" height="100%" overflow="visible" style="display: block;" viewBox="0 0 76 86" fill="none" xmlns="http://www.w3.org/2000/svg">
<g id="Border">
<rect x="1" y="1" width="74" height="84" stroke="var(--stroke-0, black)" stroke-width="2"/>
<path id="Icon" d="M35.375 51.875L49.5 37.75L45.9375 34.1875L35.375 44.75L30.125 39.5L26.5625 43.0625L35.375 51.875V51.875M38 68C32.2083 66.5417 27.4271 63.2188 23.6562 58.0312C19.8854 52.8438 18 47.0833 18 40.75V25.5L38 18L58 25.5V40.75C58 47.0833 56.1146 52.8438 52.3438 58.0312C48.5729 63.2188 43.7917 66.5417 38 68V68M38 62.75C42.3333 61.375 45.9167 58.625 48.75 54.5C51.5833 50.375 53 45.7917 53 40.75V28.9375L38 23.3125L23 28.9375V40.75C23 45.7917 24.4167 50.375 27.25 54.5C30.0833 58.625 33.6667 61.375 38 62.75V62.75M38 43V43V43V43V43V43V43V43V43V43" fill="var(--fill-0, #FF5A1F)"/>
</g>
</svg>
