<svg preserveAspectRatio="xMidYMid meet" width="100%" height="100%" overflow="visible" style="display: block;" viewBox="0 0 50 48.5" fill="none" xmlns="http://www.w3.org/2000/svg">
<g id="Border">
<rect x="1" y="1" width="48" height="46.5" stroke="var(--stroke-0, black)" stroke-width="2"/>
<path id="Icon" d="M17.5 38.5C15.425 38.5 13.6562 37.7687 12.1937 36.3062C10.7312 34.8437 10 33.075 10 31C10 28.925 10.7312 27.1563 12.1937 25.6938C13.6562 24.2313 15.425 23.5 17.5 23.5C19.575 23.5 21.3437 24.2313 22.8062 25.6938C24.2687 27.1563 25 28.925 25 31C25 33.075 24.2687 34.8437 22.8062 36.3062C21.3437 37.7687 19.575 38.5 17.5 38.5V38.5M37.9 37L28.3 27.4V27.4V27.4C28 27.075 27.6813 26.7438 27.3438 26.4062C27.0062 26.0687 26.675 25.75 26.35 25.45C27.3 24.85 28.0625 24.05 28.6375 23.05C29.2125 22.05 29.5 20.95 29.5 19.75C29.5 17.875 28.8438 16.2812 27.5312 14.9688C26.2188 13.6562 24.625 13 22.75 13C20.875 13 19.2812 13.6562 17.9688 14.9688C16.6562 16.2812 16 17.875 16 19.75C16 19.9 16.0063 20.0437 16.0188 20.1812C16.0313 20.3187 16.05 20.4625 16.075 20.6125C15.625 20.6625 15.1313 20.7625 14.5938 20.9125C14.0562 21.0625 13.575 21.2375 13.15 21.4375C13.1 21.1625 13.0625 20.8875 13.0375 20.6125C13.0125 20.3375 13 20.05 13 19.75C13 17.025 13.9438 14.7188 15.8313 12.8312C17.7188 10.9437 20.025 10 22.75 10C25.475 10 27.7813 10.9437 29.6688 12.8312C31.5563 14.7188 32.5 17.025 32.5 19.75C32.5 20.825 32.3312 21.8437 31.9937 22.8062C31.6562 23.7687 31.1875 24.65 30.5875 25.45L40 34.9L37.9 37V37M14.8375 34.7125L17.5 32.05L20.125 34.7125L21.2125 33.6625L18.55 31L21.2125 28.3375L20.1625 27.2875L17.5 29.95L14.8375 27.2875L13.7875 28.3375L16.45 31L13.7875 33.6625L14.8375 34.7125V34.7125" fill="var(--fill-0, black)"/>
</g>
</svg>
