<svg preserveAspectRatio="none" width="100%" height="100%" overflow="visible" style="display: block;" viewBox="0 0 53 53" fill="none" xmlns="http://www.w3.org/2000/svg">
<g id="Border">
<rect x="1" y="1" width="51" height="51" stroke="var(--stroke-0, black)" stroke-width="2"/>
<path id="Icon" d="M26.5 43C23.7 43 21.125 42.3625 18.775 41.0875C16.425 39.8125 14.5 38.1125 13 35.9875V40H10V31H19V34H15.2875C16.4875 35.8 18.0688 37.25 20.0312 38.35C21.9937 39.45 24.15 40 26.5 40C28.375 40 30.1312 39.6437 31.7687 38.9312C33.4062 38.2187 34.8313 37.2563 36.0438 36.0438C37.2563 34.8313 38.2187 33.4062 38.9312 31.7687C39.6437 30.1312 40 28.375 40 26.5H43C43 28.775 42.5687 30.9125 41.7062 32.9125C40.8437 34.9125 39.6625 36.6625 38.1625 38.1625C36.6625 39.6625 34.9125 40.8437 32.9125 41.7062C30.9125 42.5687 28.775 43 26.5 43V43M10 26.5C10 24.225 10.4313 22.0875 11.2938 20.0875C12.1563 18.0875 13.3375 16.3375 14.8375 14.8375C16.3375 13.3375 18.0875 12.1563 20.0875 11.2938C22.0875 10.4313 24.225 10 26.5 10C29.3 10 31.875 10.6375 34.225 11.9125C36.575 13.1875 38.5 14.8875 40 17.0125V13H43V22H34V19H37.7125C36.5125 17.2 34.9312 15.75 32.9688 14.65C31.0063 13.55 28.85 13 26.5 13C24.625 13 22.8687 13.3562 21.2312 14.0687C19.5937 14.7812 18.1688 15.7438 16.9563 16.9563C15.7438 18.1688 14.7812 19.5937 14.0687 21.2312C13.3562 22.8687 13 24.625 13 26.5H10V26.5M26.5 35.5C27.025 35.5 27.4687 35.3187 27.8312 34.9562C28.1937 34.5937 28.375 34.15 28.375 33.625C28.375 33.1 28.1937 32.65 27.8312 32.275C27.4687 31.9 27.025 31.7125 26.5 31.7125C25.975 31.7125 25.5312 31.8938 25.1687 32.2563C24.8062 32.6188 24.625 33.0625 24.625 33.5875C24.625 34.1125 24.8062 34.5625 25.1687 34.9375C25.5312 35.3125 25.975 35.5 26.5 35.5V35.5M25.15 29.8H27.8875C27.8875 28.9 27.9937 28.225 28.2062 27.775C28.4187 27.325 28.85 26.775 29.5 26.125C30.375 25.25 30.9562 24.5438 31.2437 24.0063C31.5312 23.4688 31.675 22.825 31.675 22.075C31.675 20.675 31.175 19.5625 30.175 18.7375C29.175 17.9125 27.95 17.5 26.5 17.5C25.25 17.5 24.175 17.825 23.275 18.475C22.375 19.125 21.725 20.05 21.325 21.25L23.8 22.3C23.975 21.65 24.3062 21.1125 24.7937 20.6875C25.2812 20.2625 25.85 20.05 26.5 20.05C27.175 20.05 27.7437 20.2438 28.2062 20.6313C28.6687 21.0188 28.9 21.5375 28.9 22.1875C28.9 22.6125 28.8 23.0375 28.6 23.4625C28.4 23.8875 27.975 24.3875 27.325 24.9625C26.5 25.6875 25.9312 26.3937 25.6187 27.0812C25.3062 27.7687 25.15 28.675 25.15 29.8V29.8" fill="var(--fill-0, black)"/>
</g>
</svg>
