<svg preserveAspectRatio="none" width="100%" height="100%" overflow="visible" style="display: block;" viewBox="0 0 30 30" fill="none" xmlns="http://www.w3.org/2000/svg">
<g id="Container">
<path id="Icon" d="M15 30C12.925 30 10.975 29.6063 9.15 28.8188C7.325 28.0313 5.7375 26.9625 4.3875 25.6125C3.0375 24.2625 1.96875 22.675 1.18125 20.85C0.39375 19.025 0 17.075 0 15C0 12.925 0.39375 10.975 1.18125 9.15C1.96875 7.325 3.0375 5.7375 4.3875 4.3875C5.7375 3.0375 7.325 1.96875 9.15 1.18125C10.975 0.39375 12.925 0 15 0C17.075 0 19.025 0.39375 20.85 1.18125C22.675 1.96875 24.2625 3.0375 25.6125 4.3875C26.9625 5.7375 28.0313 7.325 28.8188 9.15C29.6063 10.975 30 12.925 30 15C30 17.075 29.6063 19.025 28.8188 20.85C28.0313 22.675 26.9625 24.2625 25.6125 25.6125C24.2625 26.9625 22.675 28.0313 20.85 28.8188C19.025 29.6063 17.075 30 15 30V30M13.5 26.925V24C12.675 24 11.9688 23.7062 11.3813 23.1187C10.7938 22.5312 10.5 21.825 10.5 21V19.5L3.3 12.3C3.225 12.75 3.15625 13.2 3.09375 13.65C3.03125 14.1 3 14.55 3 15C3 18.025 3.99375 20.675 5.98125 22.95C7.96875 25.225 10.475 26.55 13.5 26.925V26.925M23.85 23.1C24.875 21.975 25.6563 20.7187 26.1938 19.3312C26.7313 17.9437 27 16.5 27 15C27 12.55 26.3187 10.3125 24.9562 8.2875C23.5937 6.2625 21.775 4.8 19.5 3.9V4.5C19.5 5.325 19.2062 6.03125 18.6187 6.61875C18.0312 7.20625 17.325 7.5 16.5 7.5H13.5V10.5C13.5 10.925 13.3563 11.2813 13.0688 11.5688C12.7813 11.8563 12.425 12 12 12H9V15H18C18.425 15 18.7813 15.1437 19.0688 15.4312C19.3563 15.7187 19.5 16.075 19.5 16.5V21H21C21.65 21 22.2375 21.1937 22.7625 21.5812C23.2875 21.9687 23.65 22.475 23.85 23.1V23.1" fill="var(--fill-0, white)"/>
</g>
</svg>
