<svg preserveAspectRatio="xMidYMid meet" width="100%" height="100%" overflow="visible" style="display: block;" viewBox="0 0 27 30" fill="none" xmlns="http://www.w3.org/2000/svg">
<g id="Container">
<path id="Icon" d="M12 26.1375V15.8625L3 10.65V20.925V20.925V20.925L12 26.1375V26.1375M15 26.1375L24 20.925V20.925V20.925V10.65L15 15.8625V26.1375V26.1375M12 29.5875L1.5 23.55C1.025 23.275 0.65625 22.9125 0.39375 22.4625C0.13125 22.0125 0 21.5125 0 20.9625V9.0375C0 8.4875 0.13125 7.9875 0.39375 7.5375C0.65625 7.0875 1.025 6.725 1.5 6.45L12 0.4125C12.475 0.1375 12.975 0 13.5 0C14.025 0 14.525 0.1375 15 0.4125L25.5 6.45C25.975 6.725 26.3438 7.0875 26.6063 7.5375C26.8688 7.9875 27 8.4875 27 9.0375V20.9625C27 21.5125 26.8688 22.0125 26.6063 22.4625C26.3438 22.9125 25.975 23.275 25.5 23.55L15 29.5875C14.525 29.8625 14.025 30 13.5 30C12.975 30 12.475 29.8625 12 29.5875V29.5875M19.5 9.7875L22.3875 8.1375L13.5 3V3V3L10.575 4.6875L19.5 9.7875V9.7875M13.5 13.275L16.425 11.5875L7.5375 6.45L4.6125 8.1375L13.5 13.275V13.275" fill="var(--fill-0, white)"/>
</g>
</svg>
