<svg preserveAspectRatio="none" width="100%" height="100%" overflow="visible" style="display: block;" viewBox="0 0 30 18.75" fill="none" xmlns="http://www.w3.org/2000/svg">
<g id="Container">
<path id="Icon" d="M9.375 18.75C6.775 18.75 4.5625 17.8375 2.7375 16.0125C0.9125 14.1875 0 11.975 0 9.375C0 6.775 0.9125 4.5625 2.7375 2.7375C4.5625 0.9125 6.775 0 9.375 0H23.25C25.125 0 26.7188 0.65625 28.0312 1.96875C29.3438 3.28125 30 4.875 30 6.75C30 8.625 29.3438 10.2188 28.0312 11.5312C26.7188 12.8438 25.125 13.5 23.25 13.5H10.125C8.975 13.5 8 13.1 7.2 12.3C6.4 11.5 6 10.525 6 9.375C6 8.225 6.4 7.25 7.2 6.45C8 5.65 8.975 5.25 10.125 5.25H24V8.25H10.125C9.8 8.25 9.53125 8.35625 9.31875 8.56875C9.10625 8.78125 9 9.05 9 9.375C9 9.7 9.10625 9.96875 9.31875 10.1812C9.53125 10.3937 9.8 10.5 10.125 10.5H23.25C24.3 10.475 25.1875 10.1063 25.9125 9.39375C26.6375 8.68125 27 7.8 27 6.75C27 5.7 26.6375 4.8125 25.9125 4.0875C25.1875 3.3625 24.3 3 23.25 3H9.375C7.6 2.975 6.09375 3.5875 4.85625 4.8375C3.61875 6.0875 3 7.6 3 9.375C3 11.125 3.61875 12.6125 4.85625 13.8375C6.09375 15.0625 7.6 15.7 9.375 15.75H24V18.75H9.375V18.75" fill="var(--fill-0, black)"/>
</g>
</svg>
