<svg preserveAspectRatio="xMidYMid meet" width="100%" height="100%" overflow="visible" style="display: block;" viewBox="0 0 33 31.5" fill="none" xmlns="http://www.w3.org/2000/svg">
<g id="Container">
<path id="Icon" d="M11.4 31.5L8.55 26.7L3.15 25.5L3.675 19.95L0 15.75L3.675 11.55L3.15 6L8.55 4.8L11.4 0L16.5 2.175L21.6 0L24.45 4.8L29.85 6L29.325 11.55L33 15.75L29.325 19.95L29.85 25.5L24.45 26.7L21.6 31.5L16.5 29.325L11.4 31.5V31.5M12.675 27.675L16.5 26.025L20.4 27.675L22.5 24.075L26.625 23.1L26.25 18.9L29.025 15.75L26.25 12.525L26.625 8.325L22.5 7.425L20.325 3.825L16.5 5.475L12.6 3.825L10.5 7.425L6.375 8.325L6.75 12.525L3.975 15.75L6.75 18.9L6.375 23.175L10.5 24.075L12.675 27.675V27.675M16.5 15.75V15.75V15.75V15.75V15.75V15.75V15.75V15.75V15.75V15.75V15.75V15.75V15.75V15.75V15.75V15.75V15.75V15.75V15.75V15.75V15.75V15.75M14.925 21.075L23.4 12.6L21.3 10.425L14.925 16.8L11.7 13.65L9.6 15.75L14.925 21.075V21.075" fill="var(--fill-0, white)"/>
</g>
</svg>
