<svg preserveAspectRatio="none" width="100%" height="100%" overflow="visible" style="display: block;" viewBox="0 0 40 40" fill="none" xmlns="http://www.w3.org/2000/svg">
<g id="Container">
<path id="Icon" d="M19.9 32C20.6 32 21.1917 31.7583 21.675 31.275C22.1583 30.7917 22.4 30.2 22.4 29.5C22.4 28.8 22.1583 28.2083 21.675 27.725C21.1917 27.2417 20.6 27 19.9 27C19.2 27 18.6083 27.2417 18.125 27.725C17.6417 28.2083 17.4 28.8 17.4 29.5C17.4 30.2 17.6417 30.7917 18.125 31.275C18.6083 31.7583 19.2 32 19.9 32V32M18.1 24.3H21.8C21.8 23.2 21.925 22.3333 22.175 21.7C22.425 21.0667 23.1333 20.2 24.3 19.1C25.1667 18.2333 25.85 17.4083 26.35 16.625C26.85 15.8417 27.1 14.9 27.1 13.8C27.1 11.9333 26.4167 10.5 25.05 9.5C23.6833 8.5 22.0667 8 20.2 8C18.3 8 16.7583 8.5 15.575 9.5C14.3917 10.5 13.5667 11.7 13.1 13.1L16.4 14.4C16.5667 13.8 16.9417 13.15 17.525 12.45C18.1083 11.75 19 11.4 20.2 11.4C21.2667 11.4 22.0667 11.6917 22.6 12.275C23.1333 12.8583 23.4 13.5 23.4 14.2C23.4 14.8667 23.2 15.4917 22.8 16.075C22.4 16.6583 21.9 17.2 21.3 17.7C19.8333 19 18.9333 19.9833 18.6 20.65C18.2667 21.3167 18.1 22.5333 18.1 24.3V24.3M20 40C17.2333 40 14.6333 39.475 12.2 38.425C9.76667 37.375 7.65 35.95 5.85 34.15C4.05 32.35 2.625 30.2333 1.575 27.8C0.525 25.3667 0 22.7667 0 20C0 17.2333 0.525 14.6333 1.575 12.2C2.625 9.76667 4.05 7.65 5.85 5.85C7.65 4.05 9.76667 2.625 12.2 1.575C14.6333 0.525 17.2333 0 20 0C22.7667 0 25.3667 0.525 27.8 1.575C30.2333 2.625 32.35 4.05 34.15 5.85C35.95 7.65 37.375 9.76667 38.425 12.2C39.475 14.6333 40 17.2333 40 20C40 22.7667 39.475 25.3667 38.425 27.8C37.375 30.2333 35.95 32.35 34.15 34.15C32.35 35.95 30.2333 37.375 27.8 38.425C25.3667 39.475 22.7667 40 20 40V40M20 36C24.4667 36 28.25 34.45 31.35 31.35C34.45 28.25 36 24.4667 36 20C36 15.5333 34.45 11.75 31.35 8.65C28.25 5.55 24.4667 4 20 4C15.5333 4 11.75 5.55 8.65 8.65C5.55 11.75 4 15.5333 4 20C4 24.4667 5.55 28.25 8.65 31.35C11.75 34.45 15.5333 36 20 36V36M20 20V20V20V20V20V20V20V20V20V20" fill="var(--fill-0, #FF5A1F)"/>
</g>
</svg>
