<svg preserveAspectRatio="none" width="100%" height="100%" overflow="visible" style="display: block;" viewBox="0 0 30 30" fill="none" xmlns="http://www.w3.org/2000/svg">
<g id="Container">
<path id="Icon" d="M15 30C12.925 30 10.975 29.6063 9.15 28.8188C7.325 28.0313 5.7375 26.9625 4.3875 25.6125C3.0375 24.2625 1.96875 22.675 1.18125 20.85C0.39375 19.025 0 17.075 0 15C0 12.925 0.39375 10.975 1.18125 9.15C1.96875 7.325 3.0375 5.7375 4.3875 4.3875C5.7375 3.0375 7.325 1.96875 9.15 1.18125C10.975 0.39375 12.925 0 15 0C16.625 0 18.1625 0.2375 19.6125 0.7125C21.0625 1.1875 22.4 1.85 23.625 2.7L21.45 4.9125C20.5 4.3125 19.4875 3.84375 18.4125 3.50625C17.3375 3.16875 16.2 3 15 3C11.675 3 8.84375 4.16875 6.50625 6.50625C4.16875 8.84375 3 11.675 3 15C3 18.325 4.16875 21.1562 6.50625 23.4937C8.84375 25.8312 11.675 27 15 27C18.325 27 21.1562 25.8312 23.4937 23.4937C25.8312 21.1562 27 18.325 27 15C27 14.55 26.975 14.1 26.925 13.65C26.875 13.2 26.8 12.7625 26.7 12.3375L29.1375 9.9C29.4125 10.7 29.625 11.525 29.775 12.375C29.925 13.225 30 14.1 30 15C30 17.075 29.6063 19.025 28.8188 20.85C28.0313 22.675 26.9625 24.2625 25.6125 25.6125C24.2625 26.9625 22.675 28.0313 20.85 28.8188C19.025 29.6063 17.075 30 15 30V30M12.9 21.9L6.525 15.525L8.625 13.425L12.9 17.7L27.9 2.6625L30 4.7625L12.9 21.9V21.9" fill="var(--fill-0, black)"/>
</g>
</svg>
