<svg preserveAspectRatio="none" width="100%" height="100%" overflow="visible" style="display: block;" viewBox="0 0 30 19.5" fill="none" xmlns="http://www.w3.org/2000/svg">
<g id="Container">
<path id="Icon" d="M22.5 19.5V15H18V12H22.5V7.5H25.5V12H30V15H25.5V19.5H22.5V19.5M13.5 15H7.5C5.425 15 3.65625 14.2687 2.19375 12.8062C0.73125 11.3437 0 9.575 0 7.5C0 5.425 0.73125 3.65625 2.19375 2.19375C3.65625 0.73125 5.425 0 7.5 0H13.5V3H7.5C6.25 3 5.1875 3.4375 4.3125 4.3125C3.4375 5.1875 3 6.25 3 7.5C3 8.75 3.4375 9.8125 4.3125 10.6875C5.1875 11.5625 6.25 12 7.5 12H13.5V15V15M9 9V6H21V9H9V9M30 7.5H27C27 6.25 26.5625 5.1875 25.6875 4.3125C24.8125 3.4375 23.75 3 22.5 3H16.5V0H22.5C24.575 0 26.3437 0.73125 27.8062 2.19375C29.2687 3.65625 30 5.425 30 7.5V7.5" fill="var(--fill-0, black)"/>
</g>
</svg>
