<svg preserveAspectRatio="xMidYMid meet" width="100%" height="100%" overflow="visible" style="display: block;" viewBox="0 0 33.3333 150" fill="none" xmlns="http://www.w3.org/2000/svg">
<g id="Decorative Exclamation">
<path id="Icon" d="M16.6667 150C12.0833 150 8.15972 148.368 4.89583 145.104C1.63194 141.84 0 137.917 0 133.333C0 128.75 1.63194 124.826 4.89583 121.562C8.15972 118.299 12.0833 116.667 16.6667 116.667C21.25 116.667 25.1736 118.299 28.4375 121.562C31.7014 124.826 33.3333 128.75 33.3333 133.333C33.3333 137.917 31.7014 141.84 28.4375 145.104C25.1736 148.368 21.25 150 16.6667 150V150M0 100V0H33.3333V100H0V100" fill="var(--fill-0, white)" fill-opacity="0.05"/>
</g>
</svg>
