<svg preserveAspectRatio="none" width="100%" height="100%" overflow="visible" style="display: block;" viewBox="0 0 55.2506 41.4193" fill="none" xmlns="http://www.w3.org/2000/svg">
<g id="Container">
<path id="Icon" d="M42.9874 34.2681L41.5571 26.9102L34.1992 28.3404L33.2457 23.4351L40.6037 22.0049L39.1734 14.647L44.0787 13.6935L45.5089 21.0514L52.8669 19.6212L53.8204 24.5265L46.4624 25.9567L47.8927 33.3146L42.9874 34.2681ZM26.8413 29.7707L17.0307 31.6776C13.6379 32.3371 10.5134 31.7036 7.65721 29.7771C4.80106 27.8506 3.04323 25.191 2.38373 21.7981C1.72423 18.4053 2.35773 15.2808 4.28424 12.4247C6.21074 9.56852 8.8704 7.81069 12.2632 7.15119L22.0738 5.24421L23.0273 10.1495L13.2167 12.0565C11.1728 12.4538 9.57461 13.5068 8.422 15.2156C7.26939 16.9244 6.89173 18.8008 7.28902 20.8447C7.68631 22.8885 8.73936 24.4868 10.4482 25.6394C12.157 26.792 14.0333 27.1696 16.0772 26.7724L25.8878 24.8654L26.8413 29.7707ZM17.5763 21.3903L16.6229 16.485L36.244 12.6711L37.1975 17.5763L17.5763 21.3903ZM51.4366 12.2632L46.5314 13.2167C46.1341 11.1728 45.081 9.57461 43.3722 8.422C41.6634 7.26939 39.787 6.89173 37.7432 7.28902L27.9326 9.19601L26.9791 4.29071L36.7897 2.38373C40.1825 1.72423 43.307 2.35773 46.1632 4.28424C49.0193 6.21074 50.7771 8.8704 51.4366 12.2632Z" fill="var(--fill-0, #FFECD6)"/>
</g>
</svg>
