<svg preserveAspectRatio="none" width="100%" height="100%" overflow="visible" style="display: block;" viewBox="0 0 40.9766 45.5295" fill="none" xmlns="http://www.w3.org/2000/svg">
<g id="Container">
<path id="Icon" d="M18.2118 39.6676V24.0737L4.55295 16.163V31.7568L18.2118 39.6676ZM22.7648 39.6676L36.4236 31.7568V16.163L22.7648 24.0737V39.6676ZM18.2118 44.9035L2.27648 35.7407C1.55559 35.3233 0.995958 34.7732 0.597575 34.0902C0.199192 33.4073 0 32.6485 0 31.8137V13.7158C0 12.8811 0.199192 12.1222 0.597575 11.4393C0.995958 10.7563 1.55559 10.2062 2.27648 9.78885L18.2118 0.626031C18.9327 0.208677 19.6915 0 20.4883 0C21.285 0 22.0439 0.208677 22.7648 0.626031L38.7001 9.78885C39.421 10.2062 39.9806 10.7563 40.379 11.4393C40.7774 12.1222 40.9766 12.8811 40.9766 13.7158V31.8137C40.9766 32.6485 40.7774 33.4073 40.379 34.0902C39.9806 34.7732 39.421 35.3233 38.7001 35.7407L22.7648 44.9035C22.0439 45.3208 21.285 45.5295 20.4883 45.5295C19.6915 45.5295 18.9327 45.3208 18.2118 44.9035ZM29.5942 14.854L33.9764 12.3499L20.4883 4.55295L16.0492 7.11399L29.5942 14.854ZM20.4883 20.1468L24.9274 17.5858L11.4393 9.78885L7.00016 12.3499L20.4883 20.1468Z" fill="var(--fill-0, #FFECD6)"/>
</g>
</svg>
