<svg preserveAspectRatio="none" width="100%" height="100%" overflow="visible" style="display: block;" viewBox="0 0 54.7669 42.7958" fill="none" xmlns="http://www.w3.org/2000/svg">
<g id="Container">
<path id="Icon" d="M14.369 33.1311C10.384 31.9127 7.42051 29.4774 5.47852 25.825C3.53653 22.1727 3.17471 18.354 4.39305 14.369C5.61139 10.384 8.04673 7.42051 11.6991 5.47852C15.3514 3.53653 19.1701 3.17471 23.1551 4.39305L44.4212 10.8948C47.295 11.7734 49.4303 13.526 50.8269 16.1527C52.2235 18.7794 52.4826 21.5296 51.6039 24.4034C50.7253 27.2772 48.9727 29.4125 46.346 30.8091C43.7193 32.2057 40.9691 32.4647 38.0953 31.5861L17.9786 25.4359C16.216 24.897 14.9091 23.827 14.0578 22.226C13.2065 20.625 13.0503 18.9432 13.5892 17.1806C14.1281 15.418 15.1981 14.111 16.7991 13.2597C18.4001 12.4085 20.0819 12.2523 21.8445 12.7911L43.1107 19.2928L41.7049 23.8909L20.4387 17.3892C19.9406 17.2369 19.4789 17.2738 19.0536 17.5C18.6284 17.7261 18.3396 18.0882 18.1873 18.5863C18.035 19.0845 18.0719 19.5462 18.298 19.9714C18.5242 20.3967 18.8863 20.6855 19.3844 20.8378L39.501 26.9881C41.1221 27.4418 42.6551 27.2925 44.1002 26.5401C45.5453 25.7878 46.5138 24.607 47.0059 22.9977C47.4979 21.3883 47.3582 19.8582 46.5867 18.4073C45.8152 16.9563 44.6248 15.9849 43.0155 15.4928L21.7493 8.99113C19.0405 8.12106 16.4449 8.35402 13.9624 9.69001C11.48 11.026 9.82288 13.0543 8.99113 15.7748C8.1711 18.457 8.42242 21.0268 9.74511 23.4843C11.0678 25.9417 13.0777 27.6246 15.7748 28.533L38.1904 35.3861L36.7847 39.9842L14.369 33.1311Z" fill="var(--fill-0, #FFECD6)"/>
</g>
</svg>
