<svg preserveAspectRatio="none" width="100%" height="100%" overflow="visible" style="display: block;" viewBox="0 0 97 97" fill="none" xmlns="http://www.w3.org/2000/svg">
<g id="Background+Border+Shadow" filter="url(#filter0_d_156_1494)">
<rect width="93" height="93" rx="46.5" fill="var(--fill-0, #FF5A1F)" shape-rendering="crispEdges"/>
<rect x="1" y="1" width="91" height="91" rx="45.5" stroke="var(--stroke-0, #222222)" stroke-width="2" shape-rendering="crispEdges"/>
<path id="Vector" d="M52.0808 27.5V44.5769L62.0984 57.5838C62.5864 58.2137 62.8903 58.9711 62.9755 59.7691C63.0606 60.5672 62.9233 61.3735 62.5795 62.0956C62.2358 62.8178 61.6993 63.4264 61.0318 63.8517C60.3643 64.2769 59.5928 64.5016 58.8057 64.5H34.1943C33.4072 64.5016 32.6357 64.2769 31.9682 63.8517C31.3007 63.4264 30.7642 62.8178 30.4204 62.0956C30.0767 61.3735 29.9394 60.5672 30.0245 59.7691C30.1096 58.9711 30.4136 58.2137 30.9016 57.5838L40.9192 44.5769V27.5M36.7336 27.5H56.2664" stroke="var(--stroke-0, #FFECD6)" stroke-width="4" stroke-linecap="round" stroke-linejoin="round"/>
</g>
<defs>
<filter id="filter0_d_156_1494" x="0" y="0" width="97" height="97" filterUnits="userSpaceOnUse" color-interpolation-filters="sRGB">
<feFlood flood-opacity="0" result="BackgroundImageFix"/>
<feColorMatrix in="SourceAlpha" type="matrix" values="0 0 0 0 0 0 0 0 0 0 0 0 0 0 0 0 0 0 127 0" result="hardAlpha"/>
<feOffset dx="4" dy="4"/>
<feComposite in2="hardAlpha" operator="out"/>
<feColorMatrix type="matrix" values="0 0 0 0 0.133333 0 0 0 0 0.133333 0 0 0 0 0.133333 0 0 0 1 0"/>
<feBlend mode="normal" in2="BackgroundImageFix" result="effect1_dropShadow_156_1494"/>
<feBlend mode="normal" in="SourceGraphic" in2="effect1_dropShadow_156_1494" result="shape"/>
</filter>
</defs>
</svg>
