<svg preserveAspectRatio="none" width="100%" height="100%" overflow="visible" style="display: block;" viewBox="0 0 97 97" fill="none" xmlns="http://www.w3.org/2000/svg">
<g id="Background+Border+Shadow" filter="url(#filter0_d_156_1491)">
<rect width="93" height="93" rx="46.5" fill="var(--fill-0, #FF5A1F)" shape-rendering="crispEdges"/>
<rect x="1" y="1" width="91" height="91" rx="45.5" stroke="var(--stroke-0, #222222)" stroke-width="2" shape-rendering="crispEdges"/>
<path id="Vector" d="M61.5139 22.5C63.7645 22.5 65.923 23.3941 67.5145 24.9855C69.1059 26.577 70 28.7355 70 30.9861V61.0139C70 63.2645 69.1059 65.423 67.5145 67.0145C65.923 68.6059 63.7645 69.5 61.5139 69.5H31.4861C29.2355 69.5 27.077 68.6059 25.4855 67.0145C23.8941 65.423 23 63.2645 23 61.0139V30.9861C23 28.7355 23.8941 26.577 25.4855 24.9855C27.077 23.3941 29.2355 22.5 31.4861 22.5H61.5139ZM61.5139 26.4167H31.4861C30.2742 26.4167 29.112 26.8981 28.255 27.755C27.3981 28.612 26.9167 29.7742 26.9167 30.9861V61.0139C26.9167 63.5362 28.9638 65.5833 31.4861 65.5833H61.5139C62.7258 65.5833 63.888 65.1019 64.745 64.245C65.6019 63.388 66.0833 62.2258 66.0833 61.0139V30.9861C66.0833 29.7742 65.6019 28.612 64.745 27.755C63.888 26.8981 62.7258 26.4167 61.5139 26.4167ZM49.7639 35.5556C50.2833 35.5556 50.7814 35.7619 51.1486 36.1291C51.5159 36.4964 51.7222 36.9945 51.7222 37.5139V44.6944H55.6389V37.5139C55.6389 36.9945 55.8452 36.4964 56.2125 36.1291C56.5797 35.7619 57.0778 35.5556 57.5972 35.5556C58.1166 35.5556 58.6147 35.7619 58.982 36.1291C59.3492 36.4964 59.5556 36.9945 59.5556 37.5139V54.4078C59.5556 54.9272 59.3492 55.4253 58.982 55.7925C58.6147 56.1598 58.1166 56.3661 57.5972 56.3661C57.0778 56.3661 56.5797 56.1598 56.2125 55.7925C55.8452 55.4253 55.6389 54.9272 55.6389 54.4078V48.6111H49.7639C49.2445 48.6111 48.7464 48.4048 48.3791 48.0375C48.0119 47.6703 47.8056 47.1722 47.8056 46.6528V37.5139C47.8056 36.9945 48.0119 36.4964 48.3791 36.1291C48.7464 35.7619 49.2445 35.5556 49.7639 35.5556ZM34.75 37.4982C35.6561 36.5008 37.1392 35.5556 39.3194 35.5556C42.3274 35.5556 44.2649 37.6236 44.9464 39.8926C45.607 42.1042 45.2075 44.8407 43.3275 46.7285C42.6759 47.3559 41.9842 47.9402 41.2569 48.4779L41.1524 48.5589C40.4213 49.1229 39.7686 49.6347 39.1941 50.2039C38.5283 50.8723 37.9826 51.6008 37.6666 52.5278H43.2361C43.7555 52.5278 44.2536 52.7341 44.6209 53.1014C44.9881 53.4686 45.1944 53.9667 45.1944 54.4861C45.1944 55.0055 44.9881 55.5036 44.6209 55.8709C44.2536 56.2381 43.7555 56.4444 43.2361 56.4444H35.4028C34.8834 56.4444 34.3853 56.2381 34.018 55.8709C33.6508 55.5036 33.4444 55.0055 33.4444 54.4861C33.4444 51.2301 34.8127 49.0472 36.4316 47.4335C37.2044 46.6606 38.0452 46.0104 38.7554 45.4595L38.7633 45.4543C39.5101 44.8772 40.0897 44.4281 40.5519 43.9659C41.2621 43.2505 41.5102 42.0729 41.1942 41.0154C40.8939 40.0206 40.2281 39.4722 39.3194 39.4722C38.3977 39.4722 37.9225 39.8299 37.6483 40.1328C37.4872 40.3088 37.3574 40.511 37.2645 40.7308L37.2593 40.7386C37.0954 41.2279 36.7451 41.6327 36.2844 41.8651C35.8238 42.0976 35.29 42.1388 34.7991 41.9799C34.3082 41.8209 33.8999 41.4747 33.6629 41.0164C33.4258 40.5581 33.3792 40.0247 33.5332 39.5323L33.6246 39.2816C33.8908 38.6256 34.2736 38.0219 34.75 37.4982Z" fill="var(--fill-0, #FFECD6)"/>
</g>
<defs>
<filter id="filter0_d_156_1491" x="0" y="0" width="97" height="97" filterUnits="userSpaceOnUse" color-interpolation-filters="sRGB">
<feFlood flood-opacity="0" result="BackgroundImageFix"/>
<feColorMatrix in="SourceAlpha" type="matrix" values="0 0 0 0 0 0 0 0 0 0 0 0 0 0 0 0 0 0 127 0" result="hardAlpha"/>
<feOffset dx="4" dy="4"/>
<feComposite in2="hardAlpha" operator="out"/>
<feColorMatrix type="matrix" values="0 0 0 0 0.133333 0 0 0 0 0.133333 0 0 0 0 0.133333 0 0 0 1 0"/>
<feBlend mode="normal" in2="BackgroundImageFix" result="effect1_dropShadow_156_1491"/>
<feBlend mode="normal" in="SourceGraphic" in2="effect1_dropShadow_156_1491" result="shape"/>
</filter>
</defs>
</svg>
