<svg preserveAspectRatio="none" width="100%" height="100%" overflow="visible" style="display: block;" viewBox="0 0 97 97" fill="none" xmlns="http://www.w3.org/2000/svg">
<g id="Background+Border+Shadow" filter="url(#filter0_d_156_1488)">
<rect width="93" height="93" rx="46.5" fill="var(--fill-0, #FF5A1F)" shape-rendering="crispEdges"/>
<rect x="1" y="1" width="91" height="91" rx="45.5" stroke="var(--stroke-0, #222222)" stroke-width="2" shape-rendering="crispEdges"/>
<path id="Vector" d="M46.5 19.5C61.136 19.5 73 31.3641 73 46C73 60.636 61.136 72.5 46.5 72.5C31.8641 72.5 20 60.636 20 46C20 31.3641 31.8641 19.5 46.5 19.5ZM46.5 24.8C40.8774 24.8 35.4851 27.0336 31.5093 31.0093C27.5336 34.9851 25.3 40.3774 25.3 46C25.3 51.6226 27.5336 57.0149 31.5093 60.9907C35.4851 64.9664 40.8774 67.2 46.5 67.2C52.1226 67.2 57.5149 64.9664 61.4907 60.9907C65.4664 57.0149 67.7 51.6226 67.7 46C67.7 40.3774 65.4664 34.9851 61.4907 31.0093C57.5149 27.0336 52.1226 24.8 46.5 24.8ZM46.5 30.1C47.1491 30.1001 47.7755 30.3384 48.2606 30.7697C48.7456 31.201 49.0555 31.7953 49.1315 32.44L49.15 32.75V44.9029L56.3236 52.0765C56.7988 52.5533 57.0748 53.1933 57.0953 53.8662C57.1159 54.5392 56.8795 55.1947 56.4342 55.6997C55.9889 56.2047 55.3681 56.5213 54.6978 56.5852C54.0276 56.649 53.3582 56.4553 52.8256 56.0435L52.5765 55.8236L44.6265 47.8736C44.2146 47.4613 43.9501 46.9249 43.8739 46.3471L43.85 46V32.75C43.85 32.0472 44.1292 31.3731 44.6262 30.8762C45.1231 30.3792 45.7972 30.1 46.5 30.1Z" fill="var(--fill-0, #FFECD6)"/>
</g>
<defs>
<filter id="filter0_d_156_1488" x="0" y="0" width="97" height="97" filterUnits="userSpaceOnUse" color-interpolation-filters="sRGB">
<feFlood flood-opacity="0" result="BackgroundImageFix"/>
<feColorMatrix in="SourceAlpha" type="matrix" values="0 0 0 0 0 0 0 0 0 0 0 0 0 0 0 0 0 0 127 0" result="hardAlpha"/>
<feOffset dx="4" dy="4"/>
<feComposite in2="hardAlpha" operator="out"/>
<feColorMatrix type="matrix" values="0 0 0 0 0.133333 0 0 0 0 0.133333 0 0 0 0 0.133333 0 0 0 1 0"/>
<feBlend mode="normal" in2="BackgroundImageFix" result="effect1_dropShadow_156_1488"/>
<feBlend mode="normal" in="SourceGraphic" in2="effect1_dropShadow_156_1488" result="shape"/>
</filter>
</defs>
</svg>
