<svg preserveAspectRatio="none" width="100%" height="100%" overflow="visible" style="display: block;" viewBox="0 0 1278.25 221.382" fill="none" xmlns="http://www.w3.org/2000/svg">
<g id="OopsLab" filter="url(#filter0_d_203_288)">
<path id="O" d="M115.09 207.382C97.3567 207.382 81.042 203.215 66.146 194.88C51.4273 186.545 39.7233 175.019 31.034 160.3C22.3447 145.581 18 129.001 18 110.558C18 92.1153 22.3447 75.5347 31.034 60.816C39.7233 46.0973 51.4273 34.6593 66.146 26.502C81.042 18.1673 97.3567 14 115.09 14C132.823 14 149.049 18.1673 163.768 26.502C178.487 34.6593 190.102 46.0973 198.614 60.816C207.303 75.5347 211.648 92.1153 211.648 110.558C211.648 129.001 207.303 145.581 198.614 160.3C190.102 175.019 178.398 186.545 163.502 194.88C148.783 203.215 132.646 207.382 115.09 207.382ZM115.09 152.32C126.794 152.32 135.838 148.596 142.222 141.148C148.606 133.523 151.798 123.326 151.798 110.558C151.798 97.6127 148.606 87.416 142.222 79.968C135.838 72.3427 126.794 68.53 115.09 68.53C103.209 68.53 94.076 72.3427 87.692 79.968C81.308 87.416 78.116 97.6127 78.116 110.558C78.116 123.326 81.308 133.523 87.692 141.148C94.076 148.596 103.209 152.32 115.09 152.32Z" fill="var(--fill-0, #FFECD6)"/>
<path id="O_2" d="M319.738 207.382C302.005 207.382 285.69 203.215 270.794 194.88C256.075 186.545 244.371 175.019 235.682 160.3C226.993 145.581 222.648 129.001 222.648 110.558C222.648 92.1153 226.993 75.5347 235.682 60.816C244.371 46.0973 256.075 34.6593 270.794 26.502C285.69 18.1673 302.005 14 319.738 14C337.471 14 353.697 18.1673 368.416 26.502C383.135 34.6593 394.75 46.0973 403.262 60.816C411.951 75.5347 416.296 92.1153 416.296 110.558C416.296 129.001 411.951 145.581 403.262 160.3C394.75 175.019 383.046 186.545 368.15 194.88C353.431 203.215 337.294 207.382 319.738 207.382ZM319.738 152.32C331.442 152.32 340.486 148.596 346.87 141.148C353.254 133.523 356.446 123.326 356.446 110.558C356.446 97.6127 353.254 87.416 346.87 79.968C340.486 72.3427 331.442 68.53 319.738 68.53C307.857 68.53 298.724 72.3427 292.34 79.968C285.956 87.416 282.764 97.6127 282.764 110.558C282.764 123.326 285.956 133.523 292.34 141.148C298.724 148.596 307.857 152.32 319.738 152.32Z" fill="var(--fill-0, #FFECD6)"/>
<path id="p" d="M581.31 81.165C581.31 93.0463 578.561 103.864 573.064 113.617C567.567 123.193 559.409 130.818 548.592 136.493C537.952 142.168 525.007 145.005 509.756 145.005H486.348V204.855H427.296V16.527H509.756C532.809 16.527 550.454 22.379 562.69 34.083C575.103 45.787 581.31 61.481 581.31 81.165ZM503.106 98.455C515.342 98.455 521.46 92.6917 521.46 81.165C521.46 69.6383 515.342 63.875 503.106 63.875H486.348V98.455H503.106Z" fill="var(--fill-0, #FFECD6)"/>
<path id="s" d="M671.844 207.382C649.323 207.382 630.703 202.151 615.984 191.688C601.443 181.048 593.551 165.531 592.31 145.138H655.086C655.973 155.955 660.761 161.364 669.45 161.364C672.642 161.364 675.302 160.655 677.43 159.236C679.735 157.64 680.888 155.246 680.888 152.054C680.888 147.621 678.494 144.074 673.706 141.414C668.918 138.577 661.47 135.385 651.362 131.838C639.303 127.582 629.284 123.415 621.304 119.336C613.501 115.257 606.763 109.317 601.088 101.514C595.413 93.7113 592.665 83.692 592.842 71.456C592.842 59.22 595.945 48.846 602.152 40.334C608.536 31.6447 617.137 25.0833 627.954 20.65C638.949 16.2167 651.273 14 664.928 14C687.981 14 706.247 19.32 719.724 29.96C733.379 40.6 740.561 55.5847 741.27 74.914H677.696C677.519 69.594 676.189 65.7813 673.706 63.476C671.223 61.1707 668.209 60.018 664.662 60.018C662.179 60.018 660.14 60.9047 658.544 62.678C656.948 64.274 656.15 66.5793 656.15 69.594C656.15 73.85 658.455 77.3967 663.066 80.234C667.854 82.894 675.391 86.1747 685.676 90.076C697.557 94.5093 707.311 98.7653 714.936 102.844C722.739 106.923 729.477 112.597 735.152 119.868C740.827 127.139 743.664 136.271 743.664 147.266C743.664 158.793 740.827 169.167 735.152 178.388C729.477 187.432 721.231 194.525 710.414 199.668C699.597 204.811 686.74 207.382 671.844 207.382Z" fill="var(--fill-0, #FFECD6)"/>
<path id="l" d="M813.716 160.167H870.64V204.855H754.664V16.527H813.716V160.167Z" fill="var(--fill-0, #FFECD6)"/>
<path id="a" d="M1015.7 176.393H952.928L943.618 204.855H881.64L950.534 16.527H1018.63L1087.26 204.855H1025.01L1015.7 176.393ZM1001.34 131.971L984.316 79.569L967.292 131.971H1001.34Z" fill="var(--fill-0, #FFECD6)"/>
<path id="b" d="M1224.34 108.297C1235.69 110.957 1244.47 116.454 1250.68 124.789C1257.06 132.946 1260.25 142.434 1260.25 153.251C1260.25 169.743 1254.75 182.511 1243.76 191.555C1232.94 200.422 1217.34 204.855 1196.94 204.855H1098.26V16.527H1194.28C1213.44 16.527 1228.51 20.6943 1239.5 29.029C1250.5 37.3637 1256 49.511 1256 65.471C1256 76.4657 1253.07 85.7757 1247.22 93.401C1241.54 100.849 1233.92 105.814 1224.34 108.297ZM1157.31 89.943H1180.19C1185.51 89.943 1189.41 88.879 1191.89 86.751C1194.55 84.623 1195.88 81.3423 1195.88 76.909C1195.88 72.2983 1194.55 68.929 1191.89 66.801C1189.41 64.4957 1185.51 63.343 1180.19 63.343H1157.31V89.943ZM1184.18 157.507C1189.5 157.507 1193.4 156.532 1195.88 154.581C1198.54 152.453 1199.87 149.084 1199.87 144.473C1199.87 135.429 1194.64 130.907 1184.18 130.907H1157.31V157.507H1184.18Z" fill="var(--fill-0, #FFECD6)"/>
</g>
<defs>
<filter id="filter0_d_203_288" x="0" y="0" width="1284.25" height="227.382" filterUnits="userSpaceOnUse" color-interpolation-filters="sRGB">
<feFlood flood-opacity="0" result="BackgroundImageFix"/>
<feColorMatrix in="SourceAlpha" type="matrix" values="0 0 0 0 0 0 0 0 0 0 0 0 0 0 0 0 0 0 127 0" result="hardAlpha"/>
<feOffset dx="6" dy="6"/>
<feComposite in2="hardAlpha" operator="out"/>
<feColorMatrix type="matrix" values="0 0 0 0 0.133333 0 0 0 0 0.133333 0 0 0 0 0.133333 0 0 0 1 0"/>
<feBlend mode="normal" in2="BackgroundImageFix" result="effect1_dropShadow_203_288"/>
<feBlend mode="normal" in="SourceGraphic" in2="effect1_dropShadow_203_288" result="shape"/>
</filter>
</defs>
</svg>
